{"glyphs":{"0":{"ha":868,"x_min":0,"x_max":0,"o":"m 97 486 b 560 989 135 756 308 989 b 863 486 817 989 894 739 b 400 -17 825 217 654 -17 b 97 486 147 -17 65 233 m 290 486 b 418 160 275 344 281 163 b 669 486 557 157 647 326 b 542 813 685 628 679 810 b 290 486 403 815 313 646 "},"1":{"ha":661,"x_min":0,"x_max":0,"o":"m 210 899 l 646 990 l 475 0 l 283 0 l 415 775 l 178 715 "},"2":{"ha":850,"x_min":0,"x_max":0,"o":"m 497 461 b 650 678 568 529 638 593 b 532 814 660 746 618 813 b 342 621 426 817 361 722 l 146 621 b 553 990 179 822 322 990 b 856 689 753 990 879 843 b 685 421 840 582 769 492 l 406 186 l 796 185 l 767 0 l 0 0 "},"3":{"ha":807,"x_min":0,"x_max":0,"o":"m 393 -19 b 88 294 189 -19 74 122 l 282 293 b 414 147 278 207 324 149 b 588 283 500 146 575 199 b 406 433 606 383 517 428 l 419 539 l 424 569 b 626 711 522 576 614 626 b 532 824 635 772 604 822 b 378 700 453 825 396 767 l 193 701 b 546 989 224 865 358 989 b 825 722 724 989 847 875 b 618 507 808 613 725 543 b 781 263 726 469 799 393 b 393 -19 757 89 592 -19 "},"4":{"ha":896,"x_min":0,"x_max":0,"o":"m 686 971 l 826 972 l 719 351 l 869 351 l 839 179 l 690 179 l 660 0 l 454 0 l 485 179 l 11 181 m 529 329 l 583 644 l 314 331 "},"5":{"ha":838,"x_min":0,"x_max":0,"o":"m 810 313 b 397 -17 782 101 592 -17 b 49 133 239 -17 129 47 l 160 289 b 379 168 215 221 293 168 b 600 332 492 168 585 229 b 439 492 614 431 536 489 b 165 425 350 494 258 469 l 376 972 l 897 972 l 869 797 l 500 797 l 407 600 b 567 633 457 622 511 633 b 810 313 733 632 831 486 "},"6":{"ha":864,"x_min":0,"x_max":0,"o":"m 826 968 l 496 636 b 582 650 522 646 550 650 b 828 335 742 649 847 503 b 411 -19 801 121 619 -19 b 93 335 206 -19 67 125 b 225 586 107 432 161 515 l 569 968 m 288 335 b 428 154 274 239 328 156 b 635 335 531 153 619 233 b 494 518 649 431 596 517 b 288 335 392 519 303 436 "},"7":{"ha":781,"x_min":0,"x_max":0,"o":"m 165 972 l 908 972 l 303 0 l 86 0 l 585 783 l 135 783 "},"8":{"ha":813,"x_min":0,"x_max":0,"o":"m 78 264 b 301 519 96 392 190 478 b 192 739 225 561 176 638 b 532 992 215 894 368 992 b 799 736 690 992 821 890 b 615 513 783 629 708 553 b 751 264 706 468 768 385 b 372 -19 725 94 551 -19 b 78 264 200 -19 53 96 m 374 717 b 467 594 364 653 400 596 b 610 718 538 593 599 651 b 517 842 619 782 585 840 b 374 717 443 843 385 783 m 276 293 b 389 147 264 213 310 149 b 563 294 472 146 549 210 b 449 436 574 367 526 435 b 276 293 367 438 290 369 "},"9":{"ha":864,"x_min":0,"x_max":0,"o":"m 143 3 l 474 336 b 386 322 447 326 418 322 b 140 638 226 324 121 469 b 557 992 167 851 349 992 b 875 638 763 992 901 847 b 743 386 861 540 807 457 l 400 3 m 681 638 b 540 818 694 733 640 817 b 335 638 438 819 350 739 b 475 454 321 542 374 456 b 681 638 578 453 665 536 "}," ":{"ha":417,"x_min":0,"x_max":0,"o":""},"!":{"ha":446,"x_min":0,"x_max":0,"o":"m 463 972 l 311 310 l 167 310 l 240 972 m 85 78 b 200 185 85 140 133 185 b 315 78 267 185 315 140 b 200 -31 315 15 267 -31 b 85 78 133 -31 85 15 "},"'":{"ha":404,"x_min":0,"x_max":0,"o":"m 472 972 l 268 538 l 146 538 l 275 972 "},"\"":{"ha":676,"x_min":0,"x_max":0,"o":"m 472 972 l 268 538 l 146 538 l 275 972 m 744 972 l 540 538 l 419 538 l 547 972 "},"#":{"ha":875,"x_min":0,"x_max":0,"o":"m 75 396 l 210 396 l 285 583 l 164 583 l 186 729 l 344 729 l 443 972 l 606 972 l 506 729 l 658 729 l 756 972 l 919 972 l 821 729 l 917 729 l 892 583 l 761 583 l 683 396 l 806 396 l 781 250 l 625 250 l 522 0 l 361 0 l 464 250 l 311 250 l 208 0 l 49 0 l 150 250 l 51 250 m 526 390 l 607 589 l 443 589 l 361 390 "},"$":{"ha":819,"x_min":0,"x_max":0,"o":"m 688 689 b 536 829 657 763 617 828 b 396 729 461 831 407 790 b 583 567 379 638 493 604 b 783 269 706 517 801 421 b 471 -10 761 113 636 11 l 451 -156 l 303 -156 l 331 -6 b 65 240 201 22 107 121 l 221 339 b 425 153 264 233 317 153 b 575 265 506 153 564 194 b 403 435 590 357 493 397 b 193 732 294 482 174 571 b 482 982 213 863 336 960 l 503 1136 l 653 1136 l 624 978 b 849 779 739 954 810 875 l 688 689 "},"%":{"ha":1172,"x_min":0,"x_max":0,"o":"m 124 749 b 404 994 143 882 263 994 b 613 747 544 994 631 876 b 332 503 593 614 474 503 b 124 749 192 503 106 619 m 1156 972 l 297 0 l 111 0 l 967 972 m 272 747 b 350 646 265 699 292 647 b 464 750 407 644 456 697 b 388 851 471 799 446 850 b 272 747 331 853 281 800 m 653 225 b 933 471 672 358 792 471 b 1140 224 1074 471 1158 353 b 860 -22 1121 90 1001 -22 b 653 225 719 -22 635 96 m 801 224 b 876 122 794 175 821 124 b 993 225 933 121 983 169 b 917 328 1000 274 972 326 b 801 224 860 329 811 279 "},"&":{"ha":983,"x_min":0,"x_max":0,"o":"m 674 86 b 354 -17 579 24 472 -18 b 68 258 188 -15 46 90 b 344 542 89 417 225 489 b 258 761 297 606 249 675 b 564 993 276 893 408 993 b 794 763 714 993 811 886 b 565 507 778 646 682 578 l 714 301 b 860 463 768 353 817 410 l 974 369 b 800 183 922 308 864 243 l 933 0 l 736 0 m 432 750 b 489 608 424 701 453 657 b 626 750 558 647 618 694 b 546 844 632 797 606 843 b 432 750 486 846 440 803 m 390 140 b 590 201 460 138 526 163 l 422 435 b 258 274 344 397 271 356 b 390 140 246 196 303 143 "},"(":{"ha":446,"x_min":0,"x_max":0,"o":"m 565 1082 b 318 403 444 874 357 643 b 358 -278 283 175 293 -58 l 197 -278 b 138 403 121 -60 104 174 b 400 1082 175 644 264 878 "},")":{"ha":446,"x_min":0,"x_max":0,"o":"m -42 -276 b 206 403 79 -68 167 163 b 167 1083 240 631 232 864 l 328 1083 b 388 403 404 865 421 632 b 124 -276 350 161 260 -72 "},"*":{"ha":797,"x_min":0,"x_max":0,"o":"m 196 463 l 381 635 l 165 681 l 239 835 l 433 736 l 444 972 l 610 972 l 543 742 l 764 836 l 789 678 l 554 631 l 683 456 l 536 360 l 460 565 l 315 363 "},"+":{"ha":885,"x_min":0,"x_max":0,"o":"m 126 456 l 390 456 l 438 735 l 625 735 l 576 456 l 840 456 l 810 281 l 546 281 l 497 1 l 313 1 l 360 281 l 97 281 "},",":{"ha":429,"x_min":0,"x_max":0,"o":"m 333 106 l 111 -237 l -22 -206 l 157 151 "},"-":{"ha":293,"x_min":0,"x_max":0,"o":"m 38 410 l 324 410 l 296 250 l 11 250 "},".":{"ha":425,"x_min":0,"x_max":0,"o":"m 78 83 b 193 196 78 146 126 196 b 307 83 260 196 307 146 b 193 -29 307 21 260 -29 b 78 83 126 -29 78 21 "},"/":{"ha":782,"x_min":0,"x_max":0,"o":"m 897 972 l 126 -208 l -56 -207 l 717 972 "},":":{"ha":425,"x_min":0,"x_max":0,"o":"m 164 604 b 278 718 164 667 211 718 b 393 604 344 718 393 667 b 278 492 393 542 344 492 b 164 604 211 492 164 542 m 75 83 b 189 196 75 146 122 196 b 304 83 256 196 304 146 b 189 -29 304 21 256 -29 b 75 83 122 -29 75 21 "},";":{"ha":504,"x_min":0,"x_max":0,"o":"m 224 599 b 339 711 224 661 272 711 b 454 599 406 711 454 661 b 339 485 454 536 406 485 b 224 599 272 485 224 536 m 354 106 l 132 -237 l -1 -206 l 179 151 "},"<":{"ha":863,"x_min":0,"x_max":0,"o":"m 771 178 l 740 7 l 101 307 l 121 424 l 865 725 l 832 539 l 371 364 "},"=":{"ha":839,"x_min":0,"x_max":0,"o":"m 136 563 l 822 563 l 794 403 l 108 403 m 92 299 l 776 299 l 749 139 l 64 139 "},">":{"ha":863,"x_min":0,"x_max":0,"o":"m 142 550 l 171 721 l 810 421 l 790 304 l 47 3 l 79 189 l 540 364 "},"?":{"ha":817,"x_min":0,"x_max":0,"o":"m 646 694 b 510 838 660 781 606 836 b 282 719 419 839 340 786 l 169 822 b 539 994 268 924 382 996 b 825 694 713 993 850 869 b 490 397 799 528 646 425 l 460 268 l 314 268 l 326 513 l 367 513 b 646 694 507 515 625 596 m 238 75 b 351 178 238 132 288 178 b 464 75 415 178 464 131 b 351 -29 464 18 415 -29 b 238 75 288 -29 238 18 "},"@":{"ha":1038,"x_min":0,"x_max":0,"o":"m 68 444 b 686 999 114 743 369 1000 b 1063 542 964 997 1099 767 b 754 203 1039 344 904 197 b 633 319 676 206 639 256 b 446 217 586 257 519 215 b 297 436 329 218 283 319 b 574 736 317 597 442 739 b 694 647 636 735 674 697 l 715 722 l 858 722 l 764 419 b 756 382 761 408 757 394 b 782 325 753 356 753 329 b 926 542 839 311 917 431 b 676 874 954 708 882 872 b 206 444 429 875 244 678 b 476 96 175 251 261 99 b 746 160 574 94 660 119 l 781 46 b 456 -29 688 -1 585 -29 b 68 444 164 -26 29 185 m 444 444 b 499 342 438 393 450 346 b 647 508 563 335 638 424 b 590 610 653 561 639 607 b 444 444 522 615 454 521 "}}}
